# xmcd
#
# Track frame offsets:
#	150
#	2222
#	14467
#	27047
#	45175
#	58855
#	72420
#	88817
#	102732
#	115062
#	136392
#	154902
#	172895
#	184755
#	198687
#	215265
#	234737
#	251860
#	262465
#
# Disc length: 3703 seconds
#
# Revision: 1
# Processed by: cddbd v1.5.1PL0 Copyright (c) Steve Scherf et al.
# Submitted via: audiograbber 1.83.01
#
DISCID=190e7513
DTITLE=Barretesao 2004 - 2004
DYEAR=1900
DGENRE=
TTITLE0=Abertura - Jhonny Barreto
TTITLE1=Mulher boa - Dois a um 
TTITLE2=A viola tiniu - Diogo e Maciel
TTITLE3=Bumbum - Jean e Jaue
TTITLE4=O file - Jad e Jefferson
TTITLE5=Vai e vem - Rodrigo e Cristiano
TTITLE6=Mulheres - Julinho e Janel 
TTITLE7=100 7o Brasil - Allison e Roberto
TTITLE8=A culpa e dela - Breno e Duran
TTITLE9=To nem ai - Guto e Nando
TTITLE10=Meu amor fugiu de mim -  Juliano Cezar 
TTITLE11=Trovejou mas nao choveu - Marcelinho de Lima
TTITLE12=Quebradeira - Pedro Paulo e Paulo Vitor
TTITLE13=Leao domado - Chico Rey e Parana
TTITLE14=Me deixe so - Adalberto e Adriano
TTITLE15=Bateu palma - Fran Jr
TTITLE16=Alo galera - Brunno e Marlow
TTITLE17=Dedo duro - Renato e Marcelo
TTITLE18=Chalana - As Galvao
EXTD=
EXTT0=
EXTT1=
EXTT2=
EXTT3=
EXTT4=
EXTT5=
EXTT6=
EXTT7=
EXTT8=
EXTT9=
EXTT10=
EXTT11=
EXTT12=
EXTT13=
EXTT14=
EXTT15=
EXTT16=
EXTT17=
EXTT18=
PLAYORDER=
